<svg width="20" height="20" viewBox="0 0 20 20" fill="none" xmlns="http://www.w3.org/2000/svg">
<g clip-path="url(#clip0_1222_36636)">
<path d="M2.1428 2.85706C1.76392 2.85706 1.40056 3.00757 1.13265 3.27547C0.864743 3.54338 0.714233 3.90674 0.714233 4.28563V17.8571C0.714233 18.2359 0.864743 18.5993 1.13265 18.8672C1.40056 19.1351 1.76392 19.2856 2.1428 19.2856H17.8571C18.2359 19.2856 18.5994 19.1351 18.8672 18.8672C19.1351 18.5993 19.2857 18.2359 19.2857 17.8571V4.28563C19.2857 3.90674 19.1351 3.54338 18.8672 3.27547C18.5994 3.00757 18.2359 2.85706 17.8571 2.85706H14.9999" stroke="#737373" stroke-width="2" stroke-linecap="round" stroke-linejoin="round"/>
<path d="M0.714233 7.85706H19.2857" stroke="#737373" stroke-width="2" stroke-linecap="round" stroke-linejoin="round"/>
<path d="M5 0.714233V4.99995" stroke="#737373" stroke-width="2" stroke-linecap="round" stroke-linejoin="round"/>
<path d="M15 0.714233V4.99995" stroke="#737373" stroke-width="2" stroke-linecap="round" stroke-linejoin="round"/>
<path d="M5 2.85706H12.1429" stroke="#737373" stroke-width="2" stroke-linecap="round" stroke-linejoin="round"/>
</g>
<defs>
<clipPath id="clip0_1222_36636">
<rect width="20" height="20" fill="white"/>
</clipPath>
</defs>
</svg>
