<svg width="20" height="20" viewBox="0 0 20 20" fill="none" xmlns="http://www.w3.org/2000/svg">
<g clip-path="url(#clip0_1222_36917)">
<path d="M18.5714 9.28564H12.8571C12.4626 9.28564 12.1428 9.60544 12.1428 9.99993V18.5714C12.1428 18.9658 12.4626 19.2856 12.8571 19.2856H18.5714C18.9658 19.2856 19.2857 18.9658 19.2857 18.5714V9.99993C19.2857 9.60544 18.9658 9.28564 18.5714 9.28564Z" stroke="#737373" stroke-width="2" stroke-linecap="round" stroke-linejoin="round"/>
<path d="M18.5714 0.714233H12.8571C12.4626 0.714233 12.1428 1.03403 12.1428 1.42852V4.29995C12.1428 4.69443 12.4626 5.01423 12.8571 5.01423H18.5714C18.9658 5.01423 19.2857 4.69443 19.2857 4.29995V1.42852C19.2857 1.03403 18.9658 0.714233 18.5714 0.714233Z" stroke="#737373" stroke-width="2" stroke-linecap="round" stroke-linejoin="round"/>
<path d="M7.1428 0.714233H1.42852C1.03403 0.714233 0.714233 1.03403 0.714233 1.42852V9.99995C0.714233 10.3944 1.03403 10.7142 1.42852 10.7142H7.1428C7.53729 10.7142 7.85709 10.3944 7.85709 9.99995V1.42852C7.85709 1.03403 7.53729 0.714233 7.1428 0.714233Z" stroke="#737373" stroke-width="2" stroke-linecap="round" stroke-linejoin="round"/>
<path d="M7.1428 14.9857H1.42852C1.03403 14.9857 0.714233 15.3054 0.714233 15.7V18.5714C0.714233 18.9659 1.03403 19.2857 1.42852 19.2857H7.1428C7.53729 19.2857 7.85709 18.9659 7.85709 18.5714V15.7C7.85709 15.3054 7.53729 14.9857 7.1428 14.9857Z" stroke="#737373" stroke-width="2" stroke-linecap="round" stroke-linejoin="round"/>
</g>
<defs>
<clipPath id="clip0_1222_36917">
<rect width="20" height="20" fill="white"/>
</clipPath>
</defs>
</svg>
