<svg width="25" height="25" viewBox="0 0 25 25" fill="none" xmlns="http://www.w3.org/2000/svg">
<path d="M18.7499 8.32323L13.6249 3.19822C13.5649 3.13556 13.4928 3.08569 13.413 3.05163C13.3332 3.01756 13.2474 3 13.1606 3C13.0738 3 12.988 3.01756 12.9082 3.05163C12.8284 3.08569 12.7563 3.13556 12.6963 3.19822L7.57134 8.32323" fill="white"/>
<path d="M18.7499 8.32323L13.6249 3.19822C13.5649 3.13556 13.4928 3.08569 13.413 3.05163C13.3332 3.01756 13.2474 3 13.1606 3C13.0738 3 12.988 3.01756 12.9082 3.05163C12.8284 3.08569 12.7563 3.13556 12.6963 3.19822L7.57134 8.32323" stroke="#747474" stroke-width="2" stroke-linecap="round" stroke-linejoin="round"/>
<path d="M18.7499 14.3232L13.6249 19.4482C13.5649 19.5109 13.4928 19.5607 13.413 19.5948C13.3332 19.629 13.2474 19.6465 13.1606 19.6465C13.0738 19.6465 12.988 19.629 12.9082 19.5948C12.8284 19.5607 12.7563 19.5109 12.6963 19.4482L7.57134 14.3232" fill="white"/>
<path d="M18.7499 14.3232L13.6249 19.4482C13.5649 19.5109 13.4928 19.5607 13.413 19.5948C13.3332 19.629 13.2474 19.6465 13.1606 19.6465C13.0738 19.6465 12.988 19.629 12.9082 19.5948C12.8284 19.5607 12.7563 19.5109 12.6963 19.4482L7.57134 14.3232" stroke="#747474" stroke-width="2" stroke-linecap="round" stroke-linejoin="round"/>
</svg>
