<svg width="20" height="20" viewBox="0 0 20 20" fill="none" xmlns="http://www.w3.org/2000/svg">
<g clip-path="url(#clip0_1222_37023)">
<path d="M12.1429 0.714233H7.85716C7.06819 0.714233 6.42859 1.35383 6.42859 2.1428V2.85709C6.42859 3.64606 7.06819 4.28566 7.85716 4.28566H12.1429C12.9318 4.28566 13.5714 3.64606 13.5714 2.85709V2.1428C13.5714 1.35383 12.9318 0.714233 12.1429 0.714233Z" stroke="#737373" stroke-width="1.5" stroke-linecap="round" stroke-linejoin="round"/>
<path d="M13.9286 2.14282H16.0714C16.4503 2.14282 16.8137 2.29334 17.0816 2.56124C17.3494 2.82915 17.5 3.19251 17.5 3.57139V17.8571C17.5 18.236 17.3494 18.5994 17.0816 18.8672C16.8137 19.1351 16.4503 19.2857 16.0714 19.2857H3.92857C3.54969 19.2857 3.18633 19.1351 2.91841 18.8672C2.65051 18.5994 2.5 18.236 2.5 17.8571V3.57139C2.5 3.19251 2.65051 2.82915 2.91841 2.56124C3.18633 2.29334 3.54969 2.14282 3.92857 2.14282H6.07143" stroke="#737373" stroke-width="1.5" stroke-linecap="round" stroke-linejoin="round"/>
</g>
<defs>
<clipPath id="clip0_1222_37023">
<rect width="20" height="20" fill="white"/>
</clipPath>
</defs>
</svg>
