<svg width="22" height="20" viewBox="0 0 22 20" fill="none" xmlns="http://www.w3.org/2000/svg">
<path d="M2.42852 4.28575C2.823 4.28575 3.1428 3.96595 3.1428 3.57146C3.1428 3.17698 2.823 2.85718 2.42852 2.85718C2.03403 2.85718 1.71423 3.17698 1.71423 3.57146C1.71423 3.96595 2.03403 4.28575 2.42852 4.28575Z" stroke="#737373" stroke-width="2" stroke-linecap="round" stroke-linejoin="round"/>
<path d="M7.42847 3.57141H20.2856" stroke="#737373" stroke-width="2" stroke-linecap="round" stroke-linejoin="round"/>
<path d="M2.42852 10.7143C2.823 10.7143 3.1428 10.3945 3.1428 10.0001C3.1428 9.60557 2.823 9.28577 2.42852 9.28577C2.03403 9.28577 1.71423 9.60557 1.71423 10.0001C1.71423 10.3945 2.03403 10.7143 2.42852 10.7143Z" stroke="#737373" stroke-width="2" stroke-linecap="round" stroke-linejoin="round"/>
<path d="M7.42847 10H20.2856" stroke="#737373" stroke-width="2" stroke-linecap="round" stroke-linejoin="round"/>
<path d="M2.42852 17.1429C2.823 17.1429 3.1428 16.8231 3.1428 16.4286C3.1428 16.0342 2.823 15.7144 2.42852 15.7144C2.03403 15.7144 1.71423 16.0342 1.71423 16.4286C1.71423 16.8231 2.03403 17.1429 2.42852 17.1429Z" stroke="#737373" stroke-width="2" stroke-linecap="round" stroke-linejoin="round"/>
<path d="M7.42847 16.4286H20.2856" stroke="#737373" stroke-width="2" stroke-linecap="round" stroke-linejoin="round"/>
</svg>
