<svg width="22" height="20" viewBox="0 0 22 20" fill="none" xmlns="http://www.w3.org/2000/svg">
<path d="M19.3143 5.35725L15.2857 7.14296V5.0001C15.2857 4.62122 15.1352 4.25786 14.8673 3.98995C14.5994 3.72205 14.236 3.57153 13.8572 3.57153H3.14287C2.76398 3.57153 2.40062 3.72205 2.13271 3.98995C1.8648 4.25786 1.71429 4.62122 1.71429 5.0001V15.0001C1.71429 15.379 1.8648 15.7424 2.13271 16.0102C2.40062 16.2781 2.76398 16.4287 3.14287 16.4287H13.8572C14.236 16.4287 14.5994 16.2781 14.8673 16.0102C15.1352 15.7424 15.2857 15.379 15.2857 15.0001V12.8572L19.3143 14.643C19.4229 14.6848 19.5402 14.6997 19.6557 14.6858C19.7713 14.6721 19.8819 14.6304 19.9776 14.5641C20.0733 14.498 20.1514 14.4094 20.2052 14.3061C20.2589 14.2028 20.2866 14.0879 20.2857 13.9715V6.02868C20.2866 5.91226 20.2589 5.7974 20.2052 5.69412C20.1514 5.59083 20.0733 5.50223 19.9776 5.43605C19.8819 5.36985 19.7713 5.32808 19.6557 5.31433C19.5402 5.3006 19.4229 5.31533 19.3143 5.35725Z" stroke="#808080" stroke-width="2" stroke-linecap="round" stroke-linejoin="round"/>
</svg>
